<?xml version="1.0" encoding="UTF-8" standalone="no"?>
<!DOCTYPE svg PUBLIC "-//W3C//DTD SVG 1.1//EN"
 "http://www.w3.org/Graphics/SVG/1.1/DTD/svg11.dtd">
<!-- Generated by graphviz version 2.38.0 (20140413.2041)
 -->
<!-- Title: name Pages: 1 -->
<svg width="318pt" height="260pt"
 viewBox="0.00 0.00 317.59 260.00" xmlns="http://www.w3.org/2000/svg" xmlns:xlink="http://www.w3.org/1999/xlink">
<g id="graph0" class="graph" transform="scale(1 1) rotate(0) translate(4 256)">
<title>name</title>
<polygon fill="white" stroke="none" points="-4,4 -4,-256 313.587,-256 313.587,4 -4,4"/>
<!-- 3 -->
<g id="node1" class="node"><title>3</title>
<ellipse fill="none" stroke="black" cx="78.7935" cy="-90" rx="59.5901" ry="18"/>
<text text-anchor="middle" x="78.7935" y="-86.3" font-family="Times,serif" font-size="14.00">3: SEQSCAN</text>
</g>
<!-- 4 -->
<g id="node2" class="node"><title>4</title>
<ellipse fill="red" stroke="black" cx="72.7935" cy="-18" rx="72.5877" ry="18"/>
<text text-anchor="middle" x="72.7935" y="-14.3" font-family="Times,serif" font-size="14.00" fill="white">4: PROJECTION</text>
</g>
<!-- 3&#45;&gt;4 -->
<g id="edge1" class="edge"><title>3&#45;&gt;4</title>
<path fill="none" stroke="black" d="M77.3104,-71.6966C76.6492,-63.9827 75.8546,-54.7125 75.1175,-46.1124"/>
<polygon fill="black" stroke="black" points="78.6009,-45.7689 74.2596,-36.1043 71.6265,-46.3667 78.6009,-45.7689"/>
</g>
<!-- 5 -->
<g id="node3" class="node"><title>5</title>
<ellipse fill="none" stroke="black" cx="229.794" cy="-90" rx="59.5901" ry="18"/>
<text text-anchor="middle" x="229.794" y="-86.3" font-family="Times,serif" font-size="14.00">5: SEQSCAN</text>
</g>
<!-- 6 -->
<g id="node4" class="node"><title>6</title>
<ellipse fill="red" stroke="black" cx="236.794" cy="-18" rx="72.5877" ry="18"/>
<text text-anchor="middle" x="236.794" y="-14.3" font-family="Times,serif" font-size="14.00" fill="white">6: PROJECTION</text>
</g>
<!-- 5&#45;&gt;6 -->
<g id="edge2" class="edge"><title>5&#45;&gt;6</title>
<path fill="none" stroke="black" d="M231.524,-71.6966C232.295,-63.9827 233.222,-54.7125 234.082,-46.1124"/>
<polygon fill="black" stroke="black" points="237.571,-46.403 235.083,-36.1043 230.605,-45.7064 237.571,-46.403"/>
</g>
<!-- 2 -->
<g id="node5" class="node"><title>2</title>
<ellipse fill="none" stroke="black" cx="147.794" cy="-162" rx="64.9885" ry="18"/>
<text text-anchor="middle" x="147.794" y="-158.3" font-family="Times,serif" font-size="14.00">2: NESTLOOP</text>
</g>
<!-- 2&#45;&gt;3 -->
<g id="edge3" class="edge"><title>2&#45;&gt;3</title>
<path fill="none" stroke="black" d="M131.442,-144.411C122.677,-135.519 111.727,-124.411 102.087,-114.631"/>
<polygon fill="black" stroke="black" points="104.541,-112.135 95.0282,-107.47 99.5556,-117.049 104.541,-112.135"/>
</g>
<!-- 2&#45;&gt;5 -->
<g id="edge4" class="edge"><title>2&#45;&gt;5</title>
<path fill="none" stroke="black" d="M166.812,-144.765C177.576,-135.576 191.209,-123.938 203.036,-113.842"/>
<polygon fill="black" stroke="black" points="205.545,-116.302 210.878,-107.147 201,-110.978 205.545,-116.302"/>
</g>
<!-- 1 -->
<g id="node6" class="node"><title>1</title>
<ellipse fill="black" stroke="black" cx="147.794" cy="-234" rx="42.7926" ry="18"/>
<text text-anchor="middle" x="147.794" y="-230.3" font-family="Times,serif" font-size="14.00" fill="white">1: SEND</text>
</g>
<!-- 1&#45;&gt;2 -->
<g id="edge5" class="edge"><title>1&#45;&gt;2</title>
<path fill="none" stroke="black" d="M147.794,-215.697C147.794,-207.983 147.794,-198.712 147.794,-190.112"/>
<polygon fill="black" stroke="black" points="151.294,-190.104 147.794,-180.104 144.294,-190.104 151.294,-190.104"/>
</g>
</g>
</svg>
